

IMDB:- 
http://www.imdb.com/title/tt1186371/




RIP INFO:-
Code:

General
Complete name                    : D:\MOVIES\DUBBED\Storm Warriors [2009] Dvd-Rip By [~SAIF~] [~TDT~].avi
Format                           : AVI
Format/Info                      : Audio Video Interleave
File size                        : 696 MiB
Duration                         : 1h 50mn
Overall bit rate                 : 882 Kbps

Video
ID                               : 0
Format                           : MPEG-4 Visual
Format profile                   : Advanced Simple@L5
Format settings, BVOP            : Yes
Format settings, QPel            : No
Format settings, GMC             : No warppoints
Format settings, Matrix          : Default (H.263)
Codec ID                         : XVID
Codec ID/Hint                    : XviD
Duration                         : 1h 50mn
Bit rate                         : 677 Kbps
Width                            : 624 pixels
Height                           : 320 pixels
Display aspect ratio             : 1.950
Frame rate                       : 23.976 fps
Color space                      : YUV
Chroma subsampling               : 4:2:0
Bit depth                        : 8 bits
Scan type                        : Progressive
Bits/(Pixel*Frame)               : 0.141
Stream size                      : 535 MiB (77%)
Writing library                  : XviD 1.2.1 (UTC 2008-12-04)

Audio
ID                               : 1
Format                           : MPEG Audio
Format version                   : Version 1
Format profile                   : Layer 3
Codec ID                         : 55
Codec ID/Hint                    : MP3
Duration                         : 1h 50mn
Bit rate mode                    : Constant
Bit rate                         : 192 Kbps
Channel(s)                       : 2 channels
Sampling rate                    : 48.0 KHz
Stream size                      : 152 MiB (22%)
Alignment                        : Split accross interleaves
Interleave, duration             : 24 ms (0.58 video frame)
Writing library                  : LAME3.98.4






SOURCE:-
ROCK [Thanks]


RIPPER & UPLODER:-
MY SELF = [~SAIF~]


CHECK SAMPLE FOR AUDIO AND VIDEO QUALITY






SAMPLE:-

 
http://img337.imageshack.us/img337/5009/vlcsnap2010080423h19m19.png 
http://img820.imageshack.us/img820/4299/vlcsnap2010080423h19m12.png 
http://img826.imageshack.us/img826/7075/vlcsnap2010080423h18m52.png 
http://img826.imageshack.us/img826/9140/vlcsnap2010080423h18m43.png 
http://img820.imageshack.us/img820/9545/vlcsnap2010080423h18m37.png
